<?xml version="1.0" encoding="UTF-8"?>
<!-- Generator: Adobe Illustrator 17.0.0, SVG Export Plug-In . SVG Version: 6.00 Build 0)  -->
<!DOCTYPE svg PUBLIC "-//W3C//DTD SVG 1.1//EN" "http://www.w3.org/Graphics/SVG/1.1/DTD/svg11.dtd">
<svg version="1.1" id="Layer_1" xmlns="http://www.w3.org/2000/svg" xmlns:xlink="http://www.w3.org/1999/xlink" x="0px" y="0px" width="275.6px" height="83px" viewBox="0 0 275.6 83" enable-background="new 0 0 275.6 83" xml:space="preserve">
<path fill="#16C473" d="M89.8,48.2c2,0.7,3,1.6,3,2.8c0,0.4-0.2,1.1-0.5,2.2l-8.5,24.4c-0.1,0.2-0.2,0.5-0.3,0.7  c-0.1,0.3-0.5,0.7-1.2,1.2c-0.6,0.5-1.4,0.7-2.2,0.7c-0.9,0-1.6-0.2-2.2-0.7c-0.6-0.5-1.1-1-1.3-1.4l-5.2-15.2  c-3.3,9.6-4.9,14.5-5,14.7c-0.1,0.2-0.2,0.4-0.4,0.7c-0.2,0.3-0.4,0.6-0.7,0.9c-0.7,0.7-1.5,1-2.4,1c-0.9,0-1.7-0.2-2.3-0.7  c-0.6-0.4-1-0.9-1.2-1.3l-0.3-0.7l-8.5-24.4c-0.3-1-0.5-1.7-0.5-2.2c0-1.2,1-2.1,3-2.8c0.9-0.3,1.6-0.4,2.3-0.4  c0.7,0,1.2,0.2,1.6,0.7c0.4,0.5,0.7,1.2,1,2.2l4.8,14.7l4.8-14.5c0.4-1.2,1.2-2.1,2.2-2.6c0.5-0.2,1.1-0.3,1.8-0.3  c0.7,0,1.4,0.2,2.1,0.7c0.6,0.5,1.1,1,1.2,1.4l5.1,15.3l4.8-14.8c0.2-0.7,0.4-1.2,0.6-1.5c0.1-0.3,0.4-0.6,0.8-0.9  c0.4-0.3,0.9-0.5,1.5-0.5C88.4,47.8,89.1,47.9,89.8,48.2z"/>
<path fill="#16C473" d="M96.5,51.9c0-0.7,0-1.2,0.1-1.5c0-0.3,0.2-0.7,0.4-1.2c0.4-0.8,1.6-1.2,3.4-1.2c2.1,0,3.3,0.5,3.7,1.6  c0.1,0.5,0.2,1.3,0.2,2.3v24.5c0,0.7,0,1.2-0.1,1.5c0,0.3-0.2,0.7-0.4,1.1c-0.4,0.8-1.6,1.2-3.4,1.2c-2.1,0-3.3-0.6-3.6-1.7  c-0.2-0.5-0.3-1.2-0.3-2.2V51.9z"/>
<path fill="#16C473" d="M109.7,75.8c-0.8-0.9-1.1-1.8-1.1-2.5c0-0.7,0.6-1.7,1.9-3c0.7-0.7,1.5-1.1,2.3-1.1c0.8,0,2,0.7,3.4,2.2  c0.4,0.5,1,1,1.8,1.4c0.8,0.5,1.5,0.7,2.1,0.7c2.7,0,4.1-1.1,4.1-3.3c0-0.7-0.4-1.2-1.1-1.7c-0.7-0.5-1.7-0.8-2.8-1  c-1.1-0.2-2.3-0.5-3.6-1c-1.3-0.5-2.5-1-3.6-1.6c-1.1-0.6-2-1.6-2.8-2.9c-0.7-1.3-1.1-2.9-1.1-4.8c0-2.6,1-4.8,2.9-6.8  c1.9-1.9,4.5-2.9,7.9-2.9c1.8,0,3.4,0.2,4.8,0.7c1.5,0.5,2.5,0.9,3,1.4l1.1,0.8c0.9,0.9,1.4,1.6,1.4,2.2c0,0.6-0.4,1.4-1.1,2.4  c-1,1.5-2,2.2-3.1,2.2c-0.6,0-1.4-0.3-2.3-0.9c-0.1-0.1-0.3-0.2-0.5-0.4c-0.3-0.2-0.5-0.4-0.7-0.6c-0.6-0.4-1.4-0.6-2.4-0.6  c-1,0-1.7,0.2-2.4,0.7c-0.6,0.5-0.9,1.1-0.9,1.9c0,0.8,0.4,1.5,1.1,2c0.7,0.5,1.7,0.8,2.8,1c1.1,0.2,2.3,0.4,3.7,0.8  c1.3,0.4,2.5,0.8,3.7,1.3c1.1,0.5,2,1.4,2.8,2.8c0.7,1.3,1.1,2.9,1.1,4.8c0,1.9-0.4,3.6-1.1,5c-0.8,1.5-1.8,2.6-3,3.4  c-2.4,1.6-4.9,2.3-7.6,2.3c-1.4,0-2.7-0.2-3.9-0.5c-1.2-0.3-2.2-0.8-3-1.3c-1.6-0.9-2.6-1.9-3.3-2.7L109.7,75.8z"/>
<path fill="#16C473" d="M144,72.5h13.6c0.7,0,1.2,0,1.5,0.1c0.3,0,0.7,0.2,1.2,0.4c0.8,0.4,1.2,1.6,1.2,3.4c0,2.1-0.5,3.3-1.6,3.6  c-0.5,0.2-1.3,0.3-2.3,0.3h-17.4c-2.1,0-3.3-0.6-3.6-1.7c-0.2-0.5-0.3-1.2-0.3-2.2V51.9c0-1.5,0.3-2.5,0.8-3.1  c0.6-0.5,1.6-0.8,3.2-0.8h17.4c0.7,0,1.2,0,1.5,0.1c0.3,0,0.7,0.2,1.2,0.4c0.8,0.4,1.2,1.6,1.2,3.4c0,2.1-0.5,3.3-1.6,3.6  c-0.5,0.2-1.3,0.3-2.3,0.3H144v4.4h8.7c0.7,0,1.2,0,1.5,0.1c0.3,0,0.7,0.2,1.2,0.4c0.8,0.4,1.2,1.6,1.2,3.4c0,2.1-0.6,3.3-1.7,3.6  c-0.5,0.2-1.3,0.3-2.3,0.3H144V72.5z"/>
<path fill="#16C473" d="M199.9,49.3c0.2,0.4,0.4,0.8,0.4,1.2c0,0.4,0.1,0.9,0.1,1.5v24.4c0,2-0.6,3.2-1.7,3.6  c-0.6,0.2-1.3,0.3-2.1,0.3s-1.5-0.1-2-0.2c-0.5-0.1-0.9-0.3-1.1-0.5c-0.3-0.2-0.5-0.5-0.6-0.9c-0.1-0.5-0.2-1.3-0.2-2.3V61.6  c-0.7,0.9-1.8,2.4-3.2,4.3c-1.4,2-2.3,3.2-2.7,3.7c-0.4,0.5-0.6,0.8-0.8,1c-0.1,0.2-0.5,0.5-1.1,0.8c-0.6,0.3-1.2,0.5-1.9,0.5  c-0.7,0-1.3-0.2-1.8-0.5c-0.5-0.3-0.9-0.6-1.2-0.9l-0.4-0.5c-0.6-0.7-1.7-2.3-3.5-4.7c-1.7-2.4-2.7-3.7-2.8-3.9v14.8  c0,0.7,0,1.2-0.1,1.5c0,0.3-0.2,0.7-0.4,1.1c-0.4,0.8-1.6,1.2-3.4,1.2c-1.8,0-2.9-0.4-3.3-1.2c-0.2-0.4-0.4-0.8-0.4-1.1  c0-0.4-0.1-0.9-0.1-1.6V51.9c0-0.7,0-1.2,0.1-1.5c0-0.3,0.2-0.7,0.4-1.2c0.4-0.8,1.6-1.1,3.4-1.1c0.8,0,1.5,0.1,2,0.3  c0.6,0.2,0.9,0.4,1.1,0.6l0.3,0.3l10,13.1c5-6.6,8.3-11,10-13.1c0.5-0.8,1.7-1.2,3.5-1.2C198.4,48.1,199.5,48.5,199.9,49.3z"/>
<path fill="#16C473" d="M223,50.3l11.9,24.6c0.5,1,0.7,1.7,0.7,2.2c0,1.1-0.9,2-2.6,2.9c-1,0.5-1.8,0.7-2.4,0.7s-1-0.1-1.4-0.4  c-0.4-0.3-0.6-0.5-0.8-0.8c-0.2-0.3-0.4-0.7-0.7-1.3l-2.3-4.8h-12.2l-2.3,4.8c-0.3,0.6-0.5,1-0.7,1.3c-0.2,0.3-0.4,0.5-0.8,0.8  c-0.4,0.3-0.8,0.4-1.4,0.4s-1.4-0.3-2.4-0.7c-1.7-0.8-2.6-1.8-2.6-2.8c0-0.5,0.2-1.2,0.7-2.2l11.9-24.6c0.3-0.7,0.8-1.2,1.5-1.6  c0.7-0.4,1.4-0.6,2.1-0.6C221.1,48,222.3,48.8,223,50.3z M219.5,60.9l-2.9,6h5.9L219.5,60.9z"/>
<g>
	<path fill="#16C473" d="M269.8,68.3v-10c0-0.4,0.2-0.7,0.4-0.9c1.5-1.2,2.4-3,2.2-5.1c-0.3-2.4-2.6-4.7-5-5   c-3.4-0.4-6.3,2.3-6.3,5.6c0,1.8,0.9,3.5,2.2,4.5c0.3,0.2,0.4,0.6,0.4,0.9v9.2c0,0.2-0.3,0.3-0.4,0.2l-10.8-10.8   c-0.4-0.4-0.5-0.9-0.3-1.4c0.4-1.2,0.5-2.4,0.3-3.8c-0.5-3.7-3.5-6.7-7.2-7.1c-5.4-0.6-10,3.9-9.3,9.3c0.4,3.7,3.4,6.7,7.1,7.2   c1.3,0.2,2.6,0.1,3.8-0.3c0.4-0.1,1.1,0,1.4,0.3l11.5,11.5c0.4,0.4,0.6,1,0.5,1.6c-0.2,0.9-0.2,2,0.1,3c0.7,2.5,2.8,4.5,5.4,4.9   c4.2,0.7,7.9-2.6,7.9-6.7c0-2.3-1.2-4.3-2.9-5.6C270.1,69.5,269.8,68.9,269.8,68.3z"/>
	<circle fill="#16C473" cx="244.2" cy="75.4" r="5.1"/>
</g>
<path fill="#405075" d="M31.8,4.4c-0.4-0.2-1.1-0.3-2.1-0.3H5.3c-1,0-1.7,0.1-2.2,0.4C2.7,4.7,2.4,5,2.3,5.4C2.1,5.9,2,6.5,2,7.3  C2,8,2.1,8.6,2.3,9.1c0.1,0.5,0.4,0.8,0.9,1c0.4,0.2,1.1,0.3,2.1,0.3h8.5v22.1c0,0.7,0,1.2,0.1,1.5c0,0.3,0.2,0.7,0.4,1.1  c0.2,0.4,0.6,0.7,1.1,0.9c0.5,0.2,1.3,0.3,2.2,0.3c0.9,0,1.6-0.1,2.2-0.3c0.6-0.2,0.9-0.5,1.2-0.9c0.2-0.4,0.4-0.8,0.4-1.1  c0-0.3,0.1-0.8,0.1-1.5V10.5h8.4c1,0,1.7-0.1,2.2-0.4c0.4-0.2,0.6-0.5,0.7-0.9c0.1-0.5,0.2-1.1,0.2-1.8c0-0.8-0.1-1.4-0.2-1.9  C32.6,5,32.3,4.6,31.8,4.4z"/>
<path fill="#405075" d="M70.8,4.1c-1.9,0-3,0.4-3.4,1.2C67.1,5.8,67,6.2,67,6.5c0,0.3-0.1,0.8-0.1,1.5v24.5c0,1,0.1,1.8,0.3,2.2  c0.4,1.1,1.6,1.7,3.6,1.7c1.9,0,3-0.4,3.4-1.2c0.2-0.4,0.4-0.8,0.4-1.1c0-0.3,0.1-0.8,0.1-1.5V8.1c0-1-0.1-1.8-0.2-2.3  C74.1,4.7,72.9,4.1,70.8,4.1z"/>
<path fill="#405075" d="M125.3,4.1c-1.9,0-3,0.4-3.4,1.2c-0.2,0.4-0.4,0.8-0.4,1.2c0,0.3-0.1,0.8-0.1,1.5v24.5c0,1,0.1,1.8,0.3,2.2  c0.4,1.1,1.6,1.7,3.6,1.7c1.9,0,3-0.4,3.4-1.2c0.2-0.4,0.4-0.8,0.4-1.1c0-0.3,0.1-0.8,0.1-1.5V8.1c0-1-0.1-1.8-0.2-2.3  C128.5,4.7,127.3,4.1,125.3,4.1z"/>
<path fill="#405075" d="M159,8.7c-3.2-3.1-7-4.6-11.2-4.6l-8.1,0c-1.9,0-3,0.4-3.4,1.2c-0.2,0.4-0.4,0.8-0.4,1.1  c0,0.3-0.1,0.8-0.1,1.5v24.5c0,1.3,0.2,2.2,0.5,2.8c0.4,0.7,1.6,1.1,3.3,1.1h8.1c4.5,0,8.3-1.6,11.5-4.8c3.2-3.2,4.7-7,4.7-11.5  C163.9,15.6,162.3,11.8,159,8.7z M153.5,26.2c-1.7,1.6-3.6,2.4-5.7,2.4h-4.3V11.9h4.2c2.2,0,4.2,0.8,5.8,2.4c1.7,1.6,2.5,3.6,2.5,6  C156.1,22.7,155.2,24.7,153.5,26.2z"/>
<path fill="#405075" d="M184.5,6.4c-0.8-1.5-1.9-2.3-3.5-2.3c-0.7,0-1.4,0.2-2.1,0.6c-0.7,0.4-1.2,1-1.5,1.6L165.5,31  c-0.5,1-0.7,1.7-0.7,2.2c0,1.1,0.9,2,2.6,2.8c1,0.5,1.8,0.7,2.4,0.7s1-0.1,1.4-0.4c0.4-0.3,0.6-0.6,0.8-0.8c0.2-0.3,0.4-0.7,0.7-1.3  l2.3-4.8h12.2l2.3,4.8c0.3,0.6,0.5,1,0.7,1.3c0.2,0.3,0.4,0.6,0.8,0.8c0.4,0.3,0.8,0.4,1.4,0.4s1.4-0.2,2.4-0.7  c1.7-0.9,2.6-1.8,2.6-2.9c0-0.5-0.2-1.2-0.7-2.2L184.5,6.4z M178,23l2.9-6l3,6H178z"/>
<path fill="#405075" d="M224.2,8.7c-3.2-3.1-7-4.6-11.2-4.6l-8.1,0c-1.9,0-3,0.4-3.4,1.2c-0.2,0.4-0.4,0.8-0.4,1.1  c0,0.3-0.1,0.8-0.1,1.5v24.5c0,1.3,0.2,2.2,0.5,2.8c0.4,0.7,1.6,1.1,3.3,1.1h8.1c4.5,0,8.3-1.6,11.5-4.8c3.2-3.2,4.7-7,4.7-11.5  C229,15.6,227.4,11.8,224.2,8.7z M218.7,26.2c-1.7,1.6-3.6,2.4-5.7,2.4h-4.3V11.9h4.2c2.2,0,4.2,0.8,5.8,2.4c1.7,1.6,2.5,3.6,2.5,6  C221.2,22.7,220.4,24.7,218.7,26.2z"/>
<g>
	<circle fill="#405075" cx="108.5" cy="9.5" r="4.3"/>
	<path fill="#405075" d="M109.1,23.9c-0.9-0.1-1.8,0-2.6,0.2c-0.8,0.2-1.6,0-2.2-0.6L93,12.2c-0.5-0.5-0.8-1.3-0.7-2.1   c0.1-0.8,0-1.6-0.2-2.5c-0.7-2.3-2.7-4.1-5.1-4.4c-3.9-0.6-7.3,2.4-7.3,6.3c0,2,0.9,3.8,2.4,5c0.6,0.4,0.9,1.1,0.9,1.8v11.3   c0,0.4-0.1,0.7-0.4,1c-1,1-1.5,2.4-1.3,4c0.3,2.2,2,3.9,4.2,4.1c2.9,0.3,5.3-1.9,5.3-4.8c0-1.3-0.5-2.4-1.3-3.3   c-0.3-0.3-0.5-0.7-0.5-1.1V17.4c0-0.2,0.3-0.4,0.5-0.2L100,27.8c0.6,0.6,0.8,1.5,0.6,2.3c-0.2,0.8-0.3,1.6-0.2,2.5   c0.3,3.9,3.5,7.1,7.5,7.4c4.8,0.3,8.8-3.7,8.5-8.5C116.2,27.5,113,24.2,109.1,23.9z"/>
</g>
<path fill="#405075" d="M59.8,21c0.8-1.5,1.1-3.3,1.1-5.2c0-1.9-0.4-3.6-1.1-5.2c-0.8-1.6-1.7-2.8-3-3.7c-2.4-1.9-5-2.8-7.5-2.8  h-9.4c-1.9,0-3,0.4-3.4,1.2c-0.2,0.4-0.4,0.8-0.4,1.2C36,6.8,36,7.3,36,8v24.5c0,1,0.1,1.8,0.3,2.3c0.4,1.1,1.6,1.6,3.6,1.6  c1.9,0,3-0.4,3.4-1.2c0.2-0.4,0.4-0.8,0.4-1.2c0-0.3,0.1-0.8,0.1-1.5v-5H46l7.9,7.3c0.8,0.7,1.4,1.1,1.8,1.3c1.1,0.5,2.3,0,3.7-1.5  c1.3-1.4,1.8-2.5,1.5-3.3c-0.2-0.5-0.3-0.8-0.6-1.1c-0.2-0.3-0.6-0.6-1.1-1.1l-3.8-3.5c0.5-0.3,0.9-0.6,1.4-1  C58.1,23.8,59.1,22.6,59.8,21z M52,18.8c-0.9,0.6-1.7,1-2.6,1h-5.6v-7.8h5.5c0.9,0,1.8,0.3,2.6,1c0.9,0.7,1.3,1.6,1.3,2.9  S52.8,18.1,52,18.8z"/>
</svg>